Coordinates
version=1
nRows=9
nColumns=36
inDegrees=yes

Units are S.I. units (second, meters, Newtons, ...)
If the header above contains a line with 'inDegrees', this indicates whether rotational values are in degrees (yes) or radians (no).

endheader
time	pelvis_tilt	pelvis_list	pelvis_rotation	pelvis_tx	pelvis_ty	pelvis_tz	hip_flexion_r	hip_adduction_r	hip_rotation_r	knee_angle_r	knee_angle_r_beta	ankle_angle_r	subtalar_angle_r	mtp_angle_r	hip_flexion_l	hip_adduction_l	hip_rotation_l	knee_angle_l	knee_angle_l_beta	ankle_angle_l	subtalar_angle_l	mtp_angle_l	lumbar_extension	lumbar_bending	lumbar_rotation	arm_flex_r	arm_add_r	arm_rot_r	elbow_flex_r	pro_sup_r	arm_flex_l	arm_add_l	arm_rot_l	elbow_flex_l	pro_sup_l
      5.93333330	     21.86615925	      5.02369602	     11.70738081	      0.03017368	      0.83223576	      0.31986514	      2.99905271	     10.19086947	     -2.64271721	     59.90591244	      1.04555541	     26.29789733	    -23.53534207	     -7.49999987	     18.70990202	      0.49456590	     24.15520326	      0.28247912	      0.00493019	    -44.18089041	    -33.43962250	     -7.49999987	    -43.18252171	     -6.77130455	     -6.10895351	     45.34514724	     12.26652951	     55.29895302	    139.71665823	    107.54546363	     61.60668441	     25.80538750	     77.20705906	    130.27924396	     74.85298587
      5.95000000	     21.68737321	      5.31095265	     11.96024310	      0.02873270	      0.82973183	      0.32011192	      3.16312692	     10.10674203	     -2.44680133	     60.04261270	      1.04794128	     26.53143632	    -23.76414527	     -7.49999987	     18.58545480	      0.82627470	     25.00313424	      0.28692772	      0.00500783	    -44.22123145	    -33.48310056	     -7.49999987	    -43.37624459	     -6.94199842	     -6.23302161	     45.16841993	     12.31828670	     55.60465548	    139.91846255	    108.64726816	     61.36134579	     26.10266565	     77.57444149	    130.27799197	     75.49508133
      5.96666670	     21.60313046	      5.25214666	     12.16129790	      0.02734436	      0.82906492	      0.32003045	      3.27514958	     10.40619525	     -2.35797557	     60.29868798	      1.05241064	     26.79513631	    -23.75187638	     -7.49999987	     18.83629888	      0.78705862	     24.85033691	      0.26827880	      0.00468235	    -44.04714123	    -33.47825720	     -7.49999987	    -43.47706699	     -6.72693403	     -6.07015170	     45.22275793	     12.26342264	     56.17474072	    140.03613886	    104.91327670	     61.44569796	     26.43397031	     77.62975955	    130.10182292	     74.61731434
      5.98333330	     21.41657614	      5.01246484	     12.25467167	      0.02690710	      0.82925138	      0.32112263	      3.30718579	     10.86426273	     -2.21275936	     60.00357350	      1.04725992	     27.85129528	    -23.67078774	     -7.49999987	     19.23095126	      0.54175140	     25.23943823	      0.23893330	      0.00417017	    -43.17169219	    -33.41961254	     -7.49999987	    -43.24690406	     -6.36069294	     -6.02352181	     45.19067242	     12.36278257	     56.11176094	    139.79955021	    108.34810513	     61.24485055	     26.46757727	     77.33006813	    130.18780832	     75.62448422
      6.00000000	     21.22238265	      4.97832236	     12.43150062	      0.02472635	      0.82573499	      0.32055945	      3.62549628	     11.05449363	     -2.22348927	     60.10812259	      1.04908465	     27.81458715	    -24.05418718	     -7.49999987	     20.11858333	      0.58633713	     24.32332722	      0.20548658	      0.00358642	    -43.73003769	    -33.35265581	     -7.49999987	    -43.17408723	     -6.39167816	     -6.06182840	     45.22025365	     12.44963522	     57.05762208	    140.02771735	    104.80254143	     61.58471306	     26.75103695	     77.58653463	    130.04741668	     74.51587972
      6.01666670	     21.19303270	      4.76031313	     12.82802829	      0.02554823	      0.82679012	      0.31989112	      3.62673895	     11.40938800	     -2.49998074	     60.11224971	      1.04915668	     27.72917604	    -24.03515045	     -7.49999987	     20.45008780	      0.35997626	     23.81938549	      0.19565602	      0.00341484	    -44.68311932	    -33.30139706	     -7.49999987	    -42.96698167	     -5.95278951	     -6.52539140	     45.26701633	     12.74110056	     56.72747495	    139.64580221	    108.26340134	     61.37857718	     26.43296002	     76.93125315	    130.01683301	     75.16278222
      6.03333330	     21.13721624	      4.58573478	     12.98043824	      0.02701853	      0.82670694	      0.31973838	      3.66856953	     11.58367193	     -2.71208053	     60.05322918	      1.04812658	     26.65629730	    -24.94827592	     -7.49999987	     20.56891245	      0.18538656	     23.16420011	      0.19154312	      0.00334306	    -45.31918393	    -33.26167324	     -7.49999987	    -42.85439675	     -5.82634090	     -6.58484375	     45.18250582	     12.72751060	     56.99678410	    139.71922646	    107.55310189	     61.50636197	     26.43150631	     77.03243625	    129.81144826	     74.73389302
      6.05000000	     21.53225646	      4.55717800	     12.52873572	      0.02533289	      0.82980137	      0.31978217	      2.89913831	     11.61986211	     -2.43732157	     59.74448295	      1.04273794	     25.74564489	    -24.89464421	     -7.49999987	     19.90060972	     -0.00751550	     23.14438085	      0.20931787	      0.00365329	    -45.21364357	    -33.35260586	     -7.49999987	    -43.19364528	     -5.94611057	     -7.00182152	     45.42919547	     12.68505759	     56.76839906	    139.27235322	    104.37603350	     62.09615730	     25.93376788	     76.20388732	    129.46285040	     74.01601720
      6.06666670	     21.75110294	      4.29696751	     12.30039666	      0.02680350	      0.83044103	      0.32097553	      2.61289987	     11.94075512	     -2.26447326	     59.58414495	      1.03993951	     24.83827396	    -24.65570271	     -7.49999987	     19.69631665	     -0.42902335	     22.45343209	      0.20445591	      0.00356843	    -45.42147172	    -33.35889686	     -7.49999987	    -43.29179735	     -5.72883790	     -7.27496046	     45.55556423	     12.88523936	     56.05529782	    138.89963309	    107.85281870	     62.11957378	     25.35135560	     75.36700105	    129.31392572	     74.47274290
